<svg width="21" height="8" viewBox="0 0 21 8" fill="none" xmlns="http://www.w3.org/2000/svg">
<path d="M3.42322 2.77678L3.58816 2.94172L3.76412 2.78859C5.57143 1.21574 7.91395 0.25 10.5 0.25C14.5491 0.25 18.0442 2.61051 19.7247 6.02832C19.978 6.56958 19.6912 7.21807 19.123 7.40217L19.1229 7.40215L19.1197 7.40323C18.653 7.56147 18.142 7.34118 17.9252 6.89142L17.9246 6.89023C16.5845 4.14818 13.7696 2.25 10.51 2.25C8.48689 2.25 6.66113 2.99358 5.22982 4.18806L5.01978 4.36334L5.21322 4.55678L7.12322 6.46678C7.59491 6.93847 7.25843 7.75 6.59 7.75H1C0.588071 7.75 0.25 7.41193 0.25 7V1.41C0.25 0.746902 1.05776 0.411309 1.53322 0.886777L3.42322 2.77678Z" fill="url(#paint0_linear_15_3)" fill-opacity="0.5" stroke="#383838" stroke-width="0.5"/>
<defs>
<linearGradient id="paint0_linear_15_3" x1="0" y1="0" x2="15.7338" y2="13.1754" gradientUnits="userSpaceOnUse">
<stop stop-color="#BBB5E7"/>
<stop offset="1" stop-color="#BBB5E7"/>
</linearGradient>
</defs>
</svg>
