<svg width="20" height="12" viewBox="0 0 20 12" fill="none" xmlns="http://www.w3.org/2000/svg">
<path d="M2.27643 5.48643L2.17037 5.5925L2.27643 5.69857L6.17643 9.59857C6.50785 9.92999 6.50785 10.455 6.17643 10.7864C5.84501 11.1179 5.31999 11.1179 4.98857 10.7864L0.398681 6.18655L0.398566 6.18643C0.0671447 5.85501 0.0671447 5.31999 0.398566 4.98857L4.98857 0.398566C5.31999 0.0671447 5.84501 0.0671447 6.17643 0.398566C6.50785 0.729987 6.50785 1.25501 6.17643 1.58643L2.27643 5.48643ZM16.8886 5.69857L16.9946 5.5925L16.8886 5.48643L12.9886 1.58643C12.6571 1.25501 12.6571 0.729987 12.9886 0.398566C13.32 0.0671447 13.845 0.0671447 14.1764 0.398566L18.7664 4.98857C19.0979 5.31999 19.0979 5.85501 18.7664 6.18643L18.7663 6.18655L14.1764 10.7864C14.1764 10.7865 14.1764 10.7865 14.1763 10.7865C13.8449 11.1179 13.32 11.1178 12.9886 10.7864C12.6571 10.455 12.6571 9.92999 12.9886 9.59857L16.8886 5.69857Z" fill="url(#paint0_linear_18_6)" fill-opacity="0.33" stroke="#383838" stroke-width="0.3"/>
<defs>
<linearGradient id="paint0_linear_18_6" x1="0" y1="0" x2="19.261" y2="11.0172" gradientUnits="userSpaceOnUse">
<stop stop-color="#BBB5E7"/>
<stop offset="1" stop-color="#BBB5E7"/>
</linearGradient>
</defs>
</svg>
