<svg width="21" height="8" viewBox="0 0 21 8" fill="none" xmlns="http://www.w3.org/2000/svg">
<path d="M17.2359 2.78859L17.4123 2.94212L17.5773 2.77631L19.4668 0.876777C19.4669 0.876725 19.4669 0.876674 19.467 0.876623C19.9387 0.405159 20.75 0.741641 20.75 1.41V7C20.75 7.41193 20.412 7.75 20 7.75H14.41C13.7469 7.75 13.4113 6.94224 13.8868 6.46678L15.7968 4.55678L15.9903 4.36334L15.7802 4.18806C14.3488 2.99347 12.513 2.25 10.5 2.25C7.24041 2.25 4.42553 4.14818 3.08543 6.89023L3.08485 6.89143C2.868 7.34118 2.35709 7.56147 1.8903 7.40323L1.8901 7.40317C1.31428 7.20852 1.03404 6.56542 1.28535 6.03833C2.9455 2.61122 6.44017 0.25 10.5 0.25C13.0861 0.25 15.4286 1.21574 17.2359 2.78859Z" fill="url(#paint0_linear_15_4)" fill-opacity="0.5" stroke="#383838" stroke-width="0.5"/>
<defs>
<linearGradient id="paint0_linear_15_4" x1="0.942383" y1="0" x2="16.6748" y2="13.1677" gradientUnits="userSpaceOnUse">
<stop stop-color="#BBB5E7"/>
<stop offset="1" stop-color="#BBB5E7"/>
</linearGradient>
</defs>
</svg>
