<svg width="68" height="29" viewBox="0 0 68 29" fill="none" xmlns="http://www.w3.org/2000/svg">
<path d="M4.46863 28.7V21.56C5.18863 22.55 6.68863 23.36 8.72863 23.36C12.8986 23.36 15.6886 20.06 15.6886 15.59C15.6886 11.21 13.1986 7.91 8.87863 7.91C6.65863 7.91 5.00863 8.9 4.34863 10.04V8.24H0.478633V28.7H4.46863ZM11.7586 15.62C11.7586 18.26 10.1386 19.79 8.09863 19.79C6.05863 19.79 4.40863 18.23 4.40863 15.62C4.40863 13.01 6.05863 11.48 8.09863 11.48C10.1386 11.48 11.7586 13.01 11.7586 15.62ZM23.6878 4.58C24.3478 4.58 24.7378 4.67 24.9478 4.73V1.37C24.6178 1.22 23.8078 1.07 22.9678 1.07C19.6978 1.07 17.5978 3.23 17.5978 6.56V8.24H15.1378V11.66H17.5978V23H21.6178V11.66H24.9478V8.24H21.6178V6.62C21.6178 4.97 22.7878 4.58 23.6878 4.58ZM31.8489 19.82C29.8989 19.82 28.0989 18.38 28.0989 15.62C28.0989 12.83 29.8989 11.42 31.8489 11.42C33.7989 11.42 35.5989 12.83 35.5989 15.62C35.5989 18.41 33.7989 19.82 31.8489 19.82ZM31.8489 7.79C27.4389 7.79 24.1089 11.06 24.1089 15.62C24.1089 20.15 27.4389 23.45 31.8489 23.45C36.2589 23.45 39.5889 20.15 39.5889 15.62C39.5889 11.06 36.2589 7.79 31.8489 7.79ZM44.7284 23V1.28H40.7384V23H44.7284ZM50.9901 23V8.24H47.0001V23H50.9901ZM46.5201 3.41C46.5201 4.73 47.6301 5.84 48.9801 5.84C50.3601 5.84 51.4401 4.73 51.4401 3.41C51.4401 2.03 50.3601 0.919998 48.9801 0.919998C47.6301 0.919998 46.5201 2.03 46.5201 3.41ZM59.8918 19.82C57.9418 19.82 56.1418 18.38 56.1418 15.62C56.1418 12.83 57.9418 11.42 59.8918 11.42C61.8418 11.42 63.6418 12.83 63.6418 15.62C63.6418 18.41 61.8418 19.82 59.8918 19.82ZM59.8918 7.79C55.4818 7.79 52.1518 11.06 52.1518 15.62C52.1518 20.15 55.4818 23.45 59.8918 23.45C64.3018 23.45 67.6318 20.15 67.6318 15.62C67.6318 11.06 64.3018 7.79 59.8918 7.79Z" fill="#8B5CF6"/>
</svg>
