<svg width="22" height="16" viewBox="0 0 22 16" fill="none" xmlns="http://www.w3.org/2000/svg">
<path d="M11 15.25C6.14137 15.25 1.98595 12.2496 0.269165 8C1.98595 3.75039 6.14137 0.75 11 0.75C15.8586 0.75 20.014 3.75039 21.7308 8C20.014 12.2496 15.8586 15.25 11 15.25ZM5.75 8C5.75 10.8981 8.10193 13.25 11 13.25C13.8981 13.25 16.25 10.8981 16.25 8C16.25 5.10193 13.8981 2.75 11 2.75C8.10193 2.75 5.75 5.10193 5.75 8ZM8.25 8C8.25 6.47807 9.47807 5.25 11 5.25C12.5219 5.25 13.75 6.47807 13.75 8C13.75 9.52193 12.5219 10.75 11 10.75C9.47807 10.75 8.25 9.52193 8.25 8Z" fill="url(#paint0_linear_15_5)" fill-opacity="0.5" stroke="#383838" stroke-width="0.5"/>
<defs>
<linearGradient id="paint0_linear_15_5" x1="0" y1="0.5" x2="23.67" y2="12.0891" gradientUnits="userSpaceOnUse">
<stop stop-color="#BBB5E7"/>
<stop offset="1" stop-color="#BBB5E7"/>
</linearGradient>
</defs>
</svg>
